<svg width="100" height="64" viewBox="0 0 100 64" fill="none" xmlns="http://www.w3.org/2000/svg">
<g clip-path="url(#clip0_5_69)">
<mask id="mask0_5_69" style="mask-type:luminance" maskUnits="userSpaceOnUse" x="0" y="0" width="100" height="64">
<path d="M100 0H0V64H100V0Z" fill="white"/>
</mask>
<g mask="url(#mask0_5_69)">
<path d="M78.3115 3.23535C80.7041 3.23535 82.9258 3.66829 84.9766 4.53418C87.0273 5.37728 88.7933 6.56217 90.2744 8.08887C91.7783 9.61556 92.9518 11.4271 93.7949 13.5234C94.638 15.6198 95.0596 17.9098 95.0596 20.3936C95.0596 21.5557 94.957 22.7292 94.752 23.9141C94.5697 25.0762 94.2393 26.2383 93.7607 27.4004C93.305 28.5397 92.667 29.6676 91.8467 30.7842C91.0492 31.8779 90.0352 32.9375 88.8047 33.9629C87.7337 34.8516 86.5716 35.7174 85.3184 36.5605C84.0879 37.4036 82.96 38.3265 81.9346 39.3291C80.932 40.3317 80.1458 41.4824 79.5762 42.7812C79.0065 44.0801 78.8698 45.641 79.166 47.4639H73.0137C72.763 46.4613 72.6377 45.5384 72.6377 44.6953C72.6377 43.3053 72.8656 42.0635 73.3213 40.9697C73.777 39.876 74.3695 38.8734 75.0986 37.9619C75.8506 37.0277 76.6937 36.1732 77.6279 35.3984C78.585 34.6009 79.5534 33.8148 80.5332 33.04C81.5358 32.2653 82.5042 31.4678 83.4385 30.6475C84.3955 29.8271 85.2386 28.9385 85.9678 27.9814C86.7197 27.0016 87.3236 25.9307 87.7793 24.7686C88.235 23.6064 88.4629 22.2848 88.4629 20.8037C88.4629 19.3226 88.2122 17.8757 87.7109 16.4629C87.2096 15.0501 86.4919 13.7969 85.5576 12.7031C84.6462 11.6094 83.5296 10.7321 82.208 10.0713C80.8864 9.3877 79.4053 9.0459 77.7646 9.0459C76.238 9.0459 74.8708 9.35352 73.6631 9.96875C72.4782 10.5612 71.4642 11.3701 70.6211 12.3955C69.8008 13.4209 69.1742 14.6058 68.7412 15.9502C68.3083 17.2718 68.0918 18.6618 68.0918 20.1201C68.0918 20.6442 68.1032 21.2025 68.126 21.7949C68.1715 22.3646 68.2513 22.9684 68.3652 23.6064L62.2812 24.5293C62.0306 23.7318 61.8597 22.957 61.7686 22.2051C61.7002 21.4531 61.666 20.7126 61.666 19.9834C61.666 17.7048 62.0648 15.5514 62.8623 13.5234C63.6826 11.4954 64.8219 9.7181 66.2803 8.19141C67.7386 6.66471 69.4932 5.45703 71.5439 4.56836C73.5947 3.67969 75.8506 3.23535 78.3115 3.23535ZM80.499 55.9404C80.499 56.4645 80.3965 56.9544 80.1914 57.4102C80.0091 57.8887 79.7471 58.2988 79.4053 58.6406C79.0635 58.9824 78.6533 59.2445 78.1748 59.4268C77.7191 59.6318 77.2292 59.7344 76.7051 59.7344C76.181 59.7344 75.6797 59.6318 75.2012 59.4268C74.7454 59.2445 74.3467 58.9824 74.0049 58.6406C73.6631 58.2988 73.3896 57.8887 73.1846 57.4102C72.9795 56.9544 72.877 56.4645 72.877 55.9404C72.877 55.4163 72.9795 54.9264 73.1846 54.4707C73.3896 53.9922 73.6631 53.582 74.0049 53.2402C74.3467 52.8984 74.7454 52.625 75.2012 52.4199C75.6797 52.2148 76.181 52.1123 76.7051 52.1123C77.2292 52.1123 77.7191 52.2148 78.1748 52.4199C78.6533 52.625 79.0635 52.8984 79.4053 53.2402C79.7471 53.582 80.0091 53.9922 80.1914 54.4707C80.3965 54.9264 80.499 55.4163 80.499 55.9404Z" fill="#D0E3FF"/>
<path d="M22.585 59.8174C21.0583 59.8174 19.5885 59.6237 18.1758 59.2363C16.763 58.849 15.4414 58.2907 14.2109 57.5615C12.9805 56.8324 11.8525 55.9551 10.8271 54.9297C9.80176 53.9043 8.91309 52.7536 8.16113 51.4775C7.43197 50.2243 6.8623 48.8457 6.45215 47.3418C6.06478 45.8607 5.87109 44.2998 5.87109 42.6592C5.87109 41.4971 5.96224 40.335 6.14453 39.1729C6.34961 37.988 6.68001 36.8145 7.13574 35.6523C7.61426 34.4902 8.25228 33.3623 9.0498 32.2686C9.84733 31.152 10.8613 30.0924 12.0918 29.0898C12.7982 28.4974 13.5501 27.9163 14.3477 27.3467C15.168 26.777 15.9655 26.196 16.7402 25.6035C17.5378 25.0111 18.2783 24.3844 18.9619 23.7236C19.6683 23.04 20.2607 22.2995 20.7393 21.502C21.2178 20.7044 21.5596 19.8158 21.7646 18.8359C21.9697 17.8561 21.9697 16.7624 21.7646 15.5547H27.917C28.0309 16.056 28.1107 16.5459 28.1562 17.0244C28.2246 17.5029 28.2588 17.9473 28.2588 18.3574C28.2588 19.7474 28.0309 20.9893 27.5752 22.083C27.1195 23.1768 26.5156 24.1908 25.7637 25.125C25.0345 26.0365 24.1914 26.891 23.2344 27.6885C22.3001 28.4632 21.3317 29.238 20.3291 30.0127C19.3493 30.7874 18.3809 31.585 17.4238 32.4053C16.4896 33.2256 15.6465 34.1257 14.8945 35.1055C14.1654 36.0625 13.5729 37.1221 13.1172 38.2842C12.6615 39.4463 12.4336 40.7679 12.4336 42.249C12.4336 43.7301 12.6842 45.1771 13.1855 46.5898C13.6868 48.0026 14.3932 49.2559 15.3047 50.3496C16.2389 51.4434 17.3669 52.3206 18.6885 52.9814C20.0329 53.665 21.5254 54.0068 23.166 54.0068C24.6927 54.0068 26.0485 53.6992 27.2334 53.084C28.4411 52.4915 29.4551 51.6826 30.2754 50.6572C31.0957 49.6318 31.7223 48.4469 32.1553 47.1025C32.5882 45.7809 32.8047 44.391 32.8047 42.9326C32.8047 42.4085 32.7819 41.8617 32.7363 41.292C32.7135 40.6995 32.6452 40.0843 32.5312 39.4463L38.6152 38.5234C38.8659 39.321 39.0368 40.0957 39.1279 40.8477C39.2191 41.5996 39.2646 42.3402 39.2646 43.0693C39.2646 45.348 38.8545 47.5013 38.0342 49.5293C37.2367 51.5573 36.0973 53.3346 34.6162 54.8613C33.1579 56.388 31.4033 57.5957 29.3525 58.4844C27.3018 59.373 25.0459 59.8174 22.585 59.8174ZM20.4316 7.1123C20.4316 6.58822 20.5228 6.09831 20.7051 5.64258C20.9102 5.16406 21.1836 4.75391 21.5254 4.41211C21.8672 4.07031 22.266 3.80827 22.7217 3.62598C23.2002 3.4209 23.7015 3.31836 24.2256 3.31836C24.7497 3.31836 25.2396 3.4209 25.6953 3.62598C26.1738 3.80827 26.584 4.07031 26.9258 4.41211C27.2676 4.75391 27.541 5.16406 27.7461 5.64258C27.9512 6.09831 28.0537 6.58822 28.0537 7.1123C28.0537 7.63639 27.9512 8.1377 27.7461 8.61621C27.541 9.07194 27.2676 9.4707 26.9258 9.8125C26.584 10.1543 26.1738 10.4277 25.6953 10.6328C25.2396 10.8379 24.7497 10.9404 24.2256 10.9404C23.7015 10.9404 23.2002 10.8379 22.7217 10.6328C22.266 10.4277 21.8672 10.1543 21.5254 9.8125C21.1836 9.4707 20.9102 9.07194 20.7051 8.61621C20.5228 8.1377 20.4316 7.63639 20.4316 7.1123Z" fill="#D0E3FF"/>
<path d="M69.4688 24.3652L63.7949 27.8174L63.7266 27.6123C63.1341 26.4502 62.4163 25.4134 61.5732 24.502C60.7301 23.5677 59.7845 22.7816 58.7363 22.1436C57.6882 21.4827 56.5602 20.9814 55.3525 20.6396C54.1676 20.2979 52.9258 20.127 51.627 20.127C49.7585 20.127 48.0039 20.4801 46.3633 21.1865C44.7454 21.8929 43.3213 22.8613 42.0908 24.0918C40.8831 25.3223 39.9261 26.7692 39.2197 28.4326C38.5133 30.0732 38.1602 31.8278 38.1602 33.6963C38.1602 35.542 38.5133 37.2852 39.2197 38.9258C39.9261 40.5664 40.8831 42.002 42.0908 43.2324C43.3213 44.4629 44.7454 45.4313 46.3633 46.1377C48.0039 46.8441 49.7585 47.1973 51.627 47.1973C52.8346 47.1973 54.0081 47.0378 55.1475 46.7188C56.2868 46.3997 57.3577 45.9554 58.3604 45.3857C59.3857 44.7933 60.32 44.0869 61.1631 43.2666C62.0062 42.4235 62.724 41.4893 63.3164 40.4639L63.4531 40.2588L69.4004 43.6426L69.332 43.8477C68.4434 45.3288 67.361 46.6618 66.085 47.8467C64.8089 49.0316 63.3962 50.0456 61.8467 50.8887C60.32 51.7546 58.6794 52.4154 56.9248 52.8711C55.193 53.3268 53.4271 53.5547 51.627 53.5547C49.0521 53.5547 46.557 53.0534 44.1416 52.0508C41.749 51.0482 39.6071 49.6582 37.7158 47.8809C35.8473 46.1035 34.3434 44.0072 33.2041 41.5918C32.0876 39.1764 31.5293 36.5446 31.5293 33.6963C31.5293 31.9873 31.7572 30.3125 32.2129 28.6719C32.6914 27.0085 33.3522 25.4362 34.1953 23.9551C35.0612 22.474 36.098 21.1068 37.3057 19.8535C38.5361 18.6003 39.8919 17.5293 41.373 16.6406C42.8542 15.7292 44.4606 15.0228 46.1924 14.5215C47.9242 13.9974 49.7357 13.7354 51.627 13.7354C53.6094 13.7354 55.4893 13.9746 57.2666 14.4531C59.0667 14.9316 60.7301 15.6266 62.2568 16.5381C63.7835 17.4268 65.1507 18.5205 66.3584 19.8193C67.5661 21.1182 68.5801 22.5879 69.4004 24.2285L69.4688 24.3652Z" fill="#5F4EFF"/>
</g>
</g>
<defs>
<clipPath id="clip0_5_69">
<rect width="100" height="64" fill="white"/>
</clipPath>
</defs>
</svg>
